<svg xmlns="http://www.w3.org/2000/svg" viewBox="0 0 143.3 54.58"><defs><style>.cls-1,.cls-4{fill:#fff;}.cls-2{fill:#34695c;}.cls-2,.cls-3,.cls-4{fill-rule:evenodd;}.cls-3{fill:#dea400;}</style></defs><title>logotipo_tce</title><g id="Camada_2" data-name="Camada 2"><g id="Camada_1-2" data-name="Camada 1"><path class="cls-1" d="M43.32,5.54A134.9,134.9,0,0,0,29.2,4.07h-.1a1.77,1.77,0,0,0-.32,0,2,2,0,0,0-1.11-.38l-2.52-.06L24.31,1.3A1.94,1.94,0,0,0,22.48,0h0a1.94,1.94,0,0,0-1.84,1.3l-.83,2.38-2.52.06a2,2,0,0,0-1.11.38,1.75,1.75,0,0,0-.33-.06h-.09A136.86,136.86,0,0,0,1.66,5.5,1.94,1.94,0,0,0,0,7.4v.24c0,3.44,0,4.26,2.12,5.9l.77.59v2.64l-.2.1a2,2,0,0,0-1,1.72l.1,5.24a2,2,0,0,0,.94,1.64l.12.07v5.21L2.64,37v.08a10.75,10.75,0,0,0,5.14,9.14l.06,0,7.1,4.09a2.83,2.83,0,0,0,.36.16,2,2,0,0,0,.58.49l.87.49a1.81,1.81,0,0,0,.67.21,1.77,1.77,0,0,0,.41.36l3.59,2.23a1.89,1.89,0,0,0,1,.29,1.93,1.93,0,0,0,.95-.25l14.42-8.12A10.54,10.54,0,0,0,43,37a1.34,1.34,0,0,0,0-.2,225.78,225.78,0,0,1-1-22.66l.71-.56C45,11.92,45,11.11,45,7.7V7.46A2,2,0,0,0,43.32,5.54Z"/><path class="cls-2" d="M37.26,45a8.88,8.88,0,0,0,4.34-7.69,233.89,233.89,0,0,1-1-24.13c0-.09,0-.19,0-.28,3-2.65,3-1.43,3-6a137.22,137.22,0,0,0-14.3-1.49c-1.87,1.43-3.62,1.66-2.75,4a83.71,83.71,0,0,1,10.65,1.17l-.6,4.06v2L18.76,51.1l3.69,2.29ZM15.67,5.48A142.24,142.24,0,0,0,1.4,6.93c-.06,4.61-.1,3.29,3,6v18L4.1,37.41A9,9,0,0,0,8.44,45.1l7.3,4.2,9.57-18.82a6.92,6.92,0,0,0-3.85-1.14,6.56,6.56,0,0,0-2.21.41l-3.6,1.14a6.84,6.84,0,0,1-2.2.41,7.19,7.19,0,0,1-5.08-2.13V18.68l-.06-5.2-.47-2.91c3.68-.54,7.21-.92,10.7-1.09.69-2.34-1-2.59-2.87-4Zm20.85,19.6L25.39,47l9.75-5.4a4.92,4.92,0,0,0,2.37-4.26ZM14.1,43.57l-3.53-1.9a5,5,0,0,1-2.46-4.26l.26-3.24a12,12,0,0,0,5.08,1.14,11.64,11.64,0,0,0,5.72-1.55Z"/><path class="cls-2" d="M6.12,17.52v-.06a13.36,13.36,0,0,0,6.63,2.05,13,13,0,0,0,3.85-.4l3.66-1a10.72,10.72,0,0,1,3.5-.4A13,13,0,0,1,30.47,20l1.79-3.86c-2.2-2.13-5.42-2.73-8.5-2.85a16.65,16.65,0,0,0-4.84.53l-3.58.94a8.23,8.23,0,0,1-2.59.35,8.94,8.94,0,0,1-3.7-1l-3-1.41Z"/><path class="cls-3" d="M22.48,1.31,23.8,5.05l4,.09L24.61,7.55l1.14,3.81L22.48,9.1l-3.27,2.26,1.14-3.81L17.2,5.14l4-.09Z"/><path class="cls-3" d="M28.08,27.47c-3.16-1.42-5.45-1.71-9.19.09-6,1.78-10.53-.75-15.62-3.8l-.1-5.39c4.46,2.6,9.47,6,15,4.34l3.29-1.05a10,10,0,0,1,3.14-.48,11.21,11.21,0,0,1,5.72,1.66l.45.25v0l.47.24L17.57,50.47,16.68,50Z"/><path class="cls-4" d="M58.61,8.2h-3V6.51h8.21V8.2H60.63V16h-2Zm8.06,4.45V16H64.78l0-8.88h4.34a5.07,5.07,0,0,1,2.6.48,2.1,2.1,0,0,1,.81.91,2.31,2.31,0,0,1,.24,1.08,2.45,2.45,0,0,1-1.7,2.59,2.53,2.53,0,0,1,.85.45,3,3,0,0,1,.76,2A5.89,5.89,0,0,0,72.91,16H70.79a7,7,0,0,1-.19-1.26,4.75,4.75,0,0,0-.14-.8,2.14,2.14,0,0,0-.23-.54,1.66,1.66,0,0,0-1.11-.7,4.78,4.78,0,0,0-.92-.07Zm0-1.58h2.66a1.7,1.7,0,0,0,.94-.2,1.21,1.21,0,0,0,.43-1,1,1,0,0,0-.64-1,2.48,2.48,0,0,0-.73-.08H66.68ZM74.34,16l0-8.88h1.88V16Zm3.73,0,0-8.88h5a4.12,4.12,0,0,1,1.72.27,2,2,0,0,1,.93,1,2.44,2.44,0,0,1-.38,2.65,2.17,2.17,0,0,1-.69.5A2.09,2.09,0,0,1,86,13.68a2.48,2.48,0,0,1-.41,1.45A2,2,0,0,1,84,16,8.09,8.09,0,0,1,83,16ZM80,10.79h2.58a2.12,2.12,0,0,0,.69-.07,1,1,0,0,0,.51-.42,1.18,1.18,0,0,0,.16-.61.88.88,0,0,0-.39-.79,1.76,1.76,0,0,0-.93-.18H80Zm0,3.65h2.58a2.12,2.12,0,0,0,.69-.07,1,1,0,0,0,.51-.42,1.16,1.16,0,0,0,.16-.61.86.86,0,0,0-.39-.78,1.65,1.65,0,0,0-.92-.18H80Zm9.26-7.3v5.32a4,4,0,0,0,.09,1,1.45,1.45,0,0,0,.8.93,2.64,2.64,0,0,0,1.13.25,2.75,2.75,0,0,0,1.11-.22,1.29,1.29,0,0,0,.65-.58,3.39,3.39,0,0,0,.2-1.35V7.14h1.89l0,5.23a6.57,6.57,0,0,1-.2,1.66,2.59,2.59,0,0,1-1.57,1.69,5.18,5.18,0,0,1-2.11.37,4.28,4.28,0,0,1-3-.9,2.64,2.64,0,0,1-.75-1.3,6,6,0,0,1-.11-1.38V7.14Zm9.41,2.37V16h-1.8l0-8.88h2.42l3.51,6.62,0-6.62h1.8l0,8.88h-2.33ZM105.49,16l3.7-8.88h2.18L115,16H112.8L112,14h-3.38l-.86,2Zm4.79-6.75L109,12.38h2.53ZM116.05,16l0-8.89h2.36l0,6.86h3.82v2Zm10.88-8.88h3.77a6.65,6.65,0,0,1,2.19.28,2.94,2.94,0,0,1,1.89,1.9,7.07,7.07,0,0,1,.36,2.28,7.34,7.34,0,0,1-.35,2.27,2.89,2.89,0,0,1-1.15,1.61,3.66,3.66,0,0,1-1.73.51q-.53,0-1.23,0h-3.77Zm1.89,1.58,0,5.72h1.88a2.19,2.19,0,0,0,1.72-.55,2.38,2.38,0,0,0,.47-1,4.75,4.75,0,0,0,.19-1.33,4.33,4.33,0,0,0-.36-1.83,1.64,1.64,0,0,0-.93-.9,3.4,3.4,0,0,0-1.08-.14ZM136.6,16l0-9.09h6.59V8.7h-4.45v1.68h4v1.7h-4v2.18h4.55V16Z"/><path class="cls-4" d="M63.32,27v1.69H60a8.64,8.64,0,0,1-1.44-.09,3.32,3.32,0,0,1-2.49-2A6.62,6.62,0,0,1,55.58,24a5.87,5.87,0,0,1,.75-3.13,3.09,3.09,0,0,1,1.54-1.31,6.16,6.16,0,0,1,2.24-.35h3.23v1.7h-3a2.51,2.51,0,0,0-2,.73,3.32,3.32,0,0,0-.52,2.16c0,1.41.26,2.34.81,2.78A2.78,2.78,0,0,0,60.4,27Zm5.37-7.25a5.43,5.43,0,0,1,2.3.46,3.06,3.06,0,0,1,1.66,1.81A6.61,6.61,0,0,1,73,24.37a5.48,5.48,0,0,1-.47,2.39,3.21,3.21,0,0,1-1.42,1.51,4.9,4.9,0,0,1-2.37.5,5.77,5.77,0,0,1-2.61-.55,3.29,3.29,0,0,1-1.6-1.92,5.65,5.65,0,0,1-.3-2,4.49,4.49,0,0,1,1.27-3.61,4.74,4.74,0,0,1,3.17-.93Zm-.06,1.5a2,2,0,0,0-1.85.85,4,4,0,0,0-.45,2.14,3.73,3.73,0,0,0,.56,2.29,2.06,2.06,0,0,0,1.76.72,2,2,0,0,0,1.88-1,4.3,4.3,0,0,0,.41-2.08,4,4,0,0,0-.45-2.08,2,2,0,0,0-1.86-.88Zm7.57.93v6.51H74.38l0-8.88h2.42l3.52,6.62V19.84h1.81l0,8.88H79.81ZM86,21.42H83.15V19.84h7.66v1.58H87.88l0,7.3H86Zm3.83,7.3,3.7-8.88H95.7l3.65,8.88H97.14l-.86-2H92.9l-.86,2ZM94.61,22l-1.28,3.11h2.53Zm5.71,6.75V27.14h4.05a3.07,3.07,0,0,0,1.31-.19.93.93,0,0,0,.47-.84,1,1,0,0,0-.55-.95,2.2,2.2,0,0,0-1-.17H103a3.45,3.45,0,0,1-2.17-.54,2.45,2.45,0,0,1-.67-.91,2.63,2.63,0,0,1-.21-1.08,2.88,2.88,0,0,1,.55-1.71,2.3,2.3,0,0,1,1.71-.87,11.79,11.79,0,0,1,1.18,0h4.41v1.58h-4a6.54,6.54,0,0,0-1.18.08.81.81,0,0,0-.61.9.85.85,0,0,0,.5.86,3,3,0,0,0,1.13.15H105a5.08,5.08,0,0,1,1.63.19,2.07,2.07,0,0,1,1.3,1.12,3.54,3.54,0,0,1,.28,1.38,2.83,2.83,0,0,1-.38,1.45,2.12,2.12,0,0,1-1.57,1.09,11.09,11.09,0,0,1-1.52.08ZM113,19.84h3.77a6.65,6.65,0,0,1,2.19.28,2.92,2.92,0,0,1,1.89,1.9,6.57,6.57,0,0,1,.36,2.28,7.05,7.05,0,0,1-.35,2.27,2.84,2.84,0,0,1-1.15,1.61,3.63,3.63,0,0,1-1.73.51q-.52,0-1.23,0H113Zm1.89,1.58v5.72h1.87a2.19,2.19,0,0,0,1.72-.55,2.51,2.51,0,0,0,.48-1,4.8,4.8,0,0,0,.18-1.33,4.33,4.33,0,0,0-.36-1.83,1.64,1.64,0,0,0-.93-.9,3.38,3.38,0,0,0-1.07-.14Zm11.65-1.64a5.38,5.38,0,0,1,2.29.46,3.08,3.08,0,0,1,1.67,1.81,6.61,6.61,0,0,1,.37,2.32,5.63,5.63,0,0,1-.47,2.39A3.26,3.26,0,0,1,129,28.27a5,5,0,0,1-2.37.5,5.77,5.77,0,0,1-2.61-.55,3.26,3.26,0,0,1-1.6-1.92,5.65,5.65,0,0,1-.3-2,4.53,4.53,0,0,1,1.26-3.61,4.79,4.79,0,0,1,3.18-.93Zm-.07,1.5a2,2,0,0,0-1.84.85,3.92,3.92,0,0,0-.45,2.14,3.81,3.81,0,0,0,.55,2.29,2.09,2.09,0,0,0,1.77.72,2,2,0,0,0,1.88-1,4.42,4.42,0,0,0,.41-2.08,4,4,0,0,0-.45-2.08,2,2,0,0,0-1.87-.88Z"/><path class="cls-4" d="M55.58,42.05l0-9.48h6.87v1.84H57.84v1.76H62v1.77H57.83V40.2h5v1.85Zm8.54,0V40.47h4.06a2.86,2.86,0,0,0,1.3-.2.91.91,0,0,0,.47-.84,1,1,0,0,0-.54-1,2.27,2.27,0,0,0-1-.16H66.77a3.48,3.48,0,0,1-2.18-.55,2.26,2.26,0,0,1-.66-.91,2.63,2.63,0,0,1-.22-1.07,3,3,0,0,1,.55-1.72A2.3,2.3,0,0,1,66,33.2c.26,0,.66,0,1.18,0h4.41v1.59h-4a7,7,0,0,0-1.19.07c-.4.1-.6.4-.6.91a.86.86,0,0,0,.5.86,3.06,3.06,0,0,0,1.12.14h1.42a5.5,5.5,0,0,1,1.64.19A2,2,0,0,1,71.77,38a3.22,3.22,0,0,1,.28,1.38,2.86,2.86,0,0,1-.37,1.46A2.13,2.13,0,0,1,70.11,42a9.5,9.5,0,0,1-1.52.09Zm11.24-7.3H72.53V33.16h7.66v1.59h-3v7.3H75.34Zm3.83,7.3,3.7-8.89h2.18l3.66,8.89H86.51L85.65,40H82.27l-.86,2.06ZM84,35.3,82.7,38.41h2.53Zm5.75-2.14H93.5a6.93,6.93,0,0,1,2.19.28,3,3,0,0,1,1.9,1.9,7.57,7.57,0,0,1,0,4.55,2.81,2.81,0,0,1-1.15,1.61,3.42,3.42,0,0,1-1.73.51c-.35,0-.75,0-1.23,0H89.71Zm1.89,1.59,0,5.72h1.88a2.19,2.19,0,0,0,1.72-.56,2.39,2.39,0,0,0,.47-1,4.52,4.52,0,0,0,.19-1.34,4.41,4.41,0,0,0-.35-1.82,1.63,1.63,0,0,0-.94-.9,3.11,3.11,0,0,0-1.07-.14Zm11.65-1.64a5.57,5.57,0,0,1,2.29.45,3.13,3.13,0,0,1,1.67,1.82,6.51,6.51,0,0,1,.37,2.31,5.6,5.6,0,0,1-.47,2.39,3.16,3.16,0,0,1-1.42,1.51,4.92,4.92,0,0,1-2.37.51,5.77,5.77,0,0,1-2.61-.56,3.27,3.27,0,0,1-1.6-1.91,5.74,5.74,0,0,1-.31-2A4.58,4.58,0,0,1,100.09,34a4.84,4.84,0,0,1,3.18-.92Zm-.06,1.49a2.07,2.07,0,0,0-1.86.86,4,4,0,0,0-.44,2.13,3.74,3.74,0,0,0,.55,2.29,2.07,2.07,0,0,0,1.77.73,2,2,0,0,0,1.87-1,4.25,4.25,0,0,0,.41-2.07,3.92,3.92,0,0,0-.44-2.09,2,2,0,0,0-1.86-.88Z"/><path class="cls-3" d="M56.46,49.53v1.58h-.88V47h2a2.41,2.41,0,0,1,1.23.22,1.13,1.13,0,0,1,.38.43,1.22,1.22,0,0,1,.11.5,1.16,1.16,0,0,1-.79,1.22,1,1,0,0,1,.39.21,1.35,1.35,0,0,1,.36.95,2.72,2.72,0,0,0,.1.63h-1a3.92,3.92,0,0,1-.09-.59,2.18,2.18,0,0,0-.07-.38.8.8,0,0,0-.11-.25.77.77,0,0,0-.52-.33,2.46,2.46,0,0,0-.43,0Zm0-.74H57.7a.78.78,0,0,0,.44-.09.55.55,0,0,0,.2-.49.48.48,0,0,0-.29-.49,1.44,1.44,0,0,0-.35,0H56.46ZM60,51.11V47h.89v4.16Zm3.59-4.19a2.59,2.59,0,0,1,1.07.21,1.47,1.47,0,0,1,.79.85,3.28,3.28,0,0,1,.17,1.09,2.54,2.54,0,0,1-.22,1.12,1.45,1.45,0,0,1-.66.7,2.28,2.28,0,0,1-1.11.24,2.74,2.74,0,0,1-1.22-.26,1.54,1.54,0,0,1-.75-.9,2.57,2.57,0,0,1-.15-.92,2.13,2.13,0,0,1,.6-1.7,2.27,2.27,0,0,1,1.48-.43Zm0,.7a1,1,0,0,0-.86.4,1.84,1.84,0,0,0-.21,1,1.72,1.72,0,0,0,.26,1.07,1,1,0,0,0,.83.34.93.93,0,0,0,.88-.45,2.09,2.09,0,0,0,.18-1,1.9,1.9,0,0,0-.21-1,.93.93,0,0,0-.87-.41Zm5.77,1h2v2.47H69.55a2.8,2.8,0,0,1-.9-.12,1.22,1.22,0,0,1-.67-.51A2.52,2.52,0,0,1,67.61,49a2.74,2.74,0,0,1,.31-1.34,1.32,1.32,0,0,1,.86-.65,2.9,2.9,0,0,1,.81-.1H71.4v.74H69.69a1.15,1.15,0,0,0-.81.24,1.46,1.46,0,0,0-.29,1,2.56,2.56,0,0,0,.14.89.69.69,0,0,0,.38.42,1.46,1.46,0,0,0,.61.1h.8v-1H69.36Zm3.67.89v1.58h-.88V47h2a2.39,2.39,0,0,1,1.22.22,1,1,0,0,1,.38.43,1.08,1.08,0,0,1,.11.5,1.15,1.15,0,0,1-.79,1.22,1.05,1.05,0,0,1,.4.21,1.31,1.31,0,0,1,.35.95,2.59,2.59,0,0,0,.11.63H75a3.92,3.92,0,0,1-.09-.59,2.34,2.34,0,0,0-.06-.38,1.89,1.89,0,0,0-.11-.25.79.79,0,0,0-.52-.33,2.54,2.54,0,0,0-.43,0Zm0-.74h1.25a.83.83,0,0,0,.44-.09.58.58,0,0,0,.2-.49.47.47,0,0,0-.3-.49,1.35,1.35,0,0,0-.34,0H73Zm3.18,2.32L77.93,47h1l1.72,4.16h-1l-.4-1H77.65l-.4,1ZM78.44,48l-.59,1.45H79Zm3.52.11v3h-.84V47h1.13l1.65,3.1V47h.85v4.16H83.66ZM85.6,47h1.77a3,3,0,0,1,1,.13,1.39,1.39,0,0,1,.89.89,3.52,3.52,0,0,1,0,2.13,1.34,1.34,0,0,1-.54.75,1.68,1.68,0,0,1-.81.24l-.57,0H85.6Zm.88.74v2.68h.89a1,1,0,0,0,.8-.26,1.18,1.18,0,0,0,.22-.45,2.59,2.59,0,0,0,.09-.63,2,2,0,0,0-.17-.85.76.76,0,0,0-.44-.42,1.4,1.4,0,0,0-.5-.07Zm3.57,3.42V46.93h3v.81H91v.78h1.83v.78H91v1h2.22v.82ZM95.61,47h1.76a3.11,3.11,0,0,1,1,.13,1.41,1.41,0,0,1,.89.89A3.38,3.38,0,0,1,99.46,49a3.67,3.67,0,0,1-.16,1.06,1.34,1.34,0,0,1-.54.75,1.75,1.75,0,0,1-.81.24l-.58,0H95.61Zm.88.74v2.68h.88a1,1,0,0,0,.81-.26,1.35,1.35,0,0,0,.22-.45,2.59,2.59,0,0,0,.08-.63,2.18,2.18,0,0,0-.16-.85.77.77,0,0,0-.45-.42,1.33,1.33,0,0,0-.5-.07Zm5.44-.77a2.67,2.67,0,0,1,1.08.21,1.44,1.44,0,0,1,.77.85,3,3,0,0,1,.18,1.09,2.54,2.54,0,0,1-.22,1.12,1.41,1.41,0,0,1-.66.7,2.28,2.28,0,0,1-1.11.24,2.77,2.77,0,0,1-1.22-.26A1.54,1.54,0,0,1,100,50a2.57,2.57,0,0,1-.15-.92,2.16,2.16,0,0,1,.59-1.7,2.3,2.3,0,0,1,1.49-.43Zm0,.7a1,1,0,0,0-.86.4,1.84,1.84,0,0,0-.21,1,1.79,1.79,0,0,0,.26,1.07,1,1,0,0,0,.83.34.92.92,0,0,0,.88-.45,2.08,2.08,0,0,0,.19-1,1.9,1.9,0,0,0-.21-1,1,1,0,0,0-.88-.41Zm5.09.44v3h-.84V47h1.13l1.66,3.1V47h.84v4.16h-1.09Zm5.48-1.14a2.59,2.59,0,0,1,1.07.21,1.45,1.45,0,0,1,.78.85,3,3,0,0,1,.18,1.09,2.54,2.54,0,0,1-.22,1.12,1.45,1.45,0,0,1-.66.7,2.28,2.28,0,0,1-1.11.24,2.74,2.74,0,0,1-1.22-.26,1.54,1.54,0,0,1-.75-.9,2.57,2.57,0,0,1-.15-.92,2.16,2.16,0,0,1,.59-1.7,2.3,2.3,0,0,1,1.49-.43Zm0,.7a1,1,0,0,0-.86.4,1.84,1.84,0,0,0-.21,1,1.79,1.79,0,0,0,.26,1.07,1,1,0,0,0,.83.34.93.93,0,0,0,.88-.45,2.08,2.08,0,0,0,.19-1,1.9,1.9,0,0,0-.21-1,1,1,0,0,0-.88-.41ZM116,49.53v1.58h-.88V47h2a2.39,2.39,0,0,1,1.22.22,1.05,1.05,0,0,1,.38.43,1.08,1.08,0,0,1,.11.5,1.15,1.15,0,0,1-.79,1.22,1.14,1.14,0,0,1,.4.21,1.4,1.4,0,0,1,.35.95,2.72,2.72,0,0,0,.1.63h-1a3.92,3.92,0,0,1-.09-.59c0-.16,0-.29-.06-.38a1.15,1.15,0,0,0-.12-.25.77.77,0,0,0-.51-.33,2.63,2.63,0,0,0-.43,0Zm0-.74h1.24a.78.78,0,0,0,.44-.09.55.55,0,0,0,.2-.49.47.47,0,0,0-.29-.49,1.44,1.44,0,0,0-.35,0H116Zm4.51-1.1h-1.33V47h3.59v.74H121.4v3.42h-.88Zm2.69,3.42V46.94h3v.81h-2v.77H126v.78H124.2v1h2.22v.81Z"/></g></g></svg>